<?xml version="1.0" standalone="no"?>
<!DOCTYPE svg PUBLIC "-//W3C//DTD SVG 20010904//EN"
 "http://www.w3.org/TR/2001/REC-SVG-20010904/DTD/svg10.dtd">
<svg version="1.0" xmlns="http://www.w3.org/2000/svg"
 width="460.000000pt" height="460.000000pt" viewBox="0 0 460.000000 460.000000"
 preserveAspectRatio="xMidYMid meet">
<metadata>
Created by potrace 1.11, written by Peter Selinger 2001-2013
</metadata>
<g transform="translate(0.000000,460.000000) scale(0.100000,-0.100000)"
fill="#000000" stroke="none">
<path d="M0 2300 l0 -2300 2300 0 2300 0 0 2300 0 2300 -2300 0 -2300 0 0
-2300z m1752 2005 c-24 -50 -42 -118 -57 -210 -23 -146 -22 -145 -48 -145 -21
-1 -22 -1 -3 -15 20 -15 19 -15 -1 -15 -11 0 -32 9 -46 20 -14 11 -30 20 -36
20 -6 0 -11 5 -11 10 0 6 -6 10 -13 10 -14 0 -50 18 -102 50 -16 10 -38 19
-47 19 -25 1 -22 15 6 46 15 16 30 24 37 19 7 -4 9 -3 6 2 -3 5 11 21 31 34
20 14 39 27 42 30 15 17 98 80 105 80 7 0 23 13 93 79 l36 33 8 -23 c5 -14 5
-32 0 -44z m1958 -167 c0 -10 -5 -18 -12 -18 -12 0 -5 -11 9 -12 14 -1 33 -58
33 -100 0 -21 4 -37 9 -34 4 3 8 -7 9 -22 3 -113 11 -379 11 -385 1 -5 5 -6
10 -3 5 4 7 -3 4 -14 -4 -16 -9 -18 -19 -9 -7 6 -25 9 -41 6 -27 -4 -27 -4 5
-6 17 0 32 -5 32 -10 0 -9 -4 -9 -129 14 -47 8 -87 17 -89 20 -3 2 3 16 12 29
20 31 21 48 1 22 -8 -11 -17 -17 -20 -14 -7 7 41 114 54 123 6 3 11 12 11 18
0 7 -4 6 -10 -3 -8 -13 -10 -13 -10 2 0 9 4 19 10 23 5 3 7 12 3 20 -3 9 1 15
9 15 10 0 15 12 16 37 1 20 8 69 16 108 8 38 20 98 27 132 7 34 17 59 22 56 6
-3 8 8 5 27 -5 30 -4 31 9 15 7 -11 13 -27 13 -37z m-510 -23 c0 -12 4 -25 9
-30 9 -11 41 -156 47 -217 2 -20 6 -49 10 -65 4 -15 8 -63 11 -106 4 -63 2
-78 -11 -83 -9 -3 -16 -13 -16 -21 0 -14 -16 -15 -117 -9 -65 4 -119 9 -122
11 -2 3 3 5 12 5 9 0 17 4 17 10 0 5 -6 7 -13 4 -24 -9 -56 29 -50 59 3 15 9
25 13 22 11 -7 33 54 31 90 -1 26 1 28 9 10 8 -16 10 -13 7 16 -1 20 3 41 10
48 7 6 13 26 14 44 0 18 3 26 6 20 2 -7 9 -13 14 -13 12 0 12 27 -1 32 -5 2 1
25 15 52 14 27 25 55 25 62 0 6 7 14 15 18 8 3 15 14 15 23 0 10 7 29 16 42
13 18 18 20 25 10 5 -8 9 -23 9 -34z m-2075 -44 c-3 -6 -11 -11 -16 -11 -5 0
-4 6 3 14 14 16 24 13 13 -3z m-35 -18 c0 -17 -43 -51 -59 -46 -13 5 -14 3 -3
-8 10 -11 6 -19 -23 -45 -22 -19 -43 -30 -54 -27 -9 2 -24 -3 -32 -13 -13 -16
-12 -16 9 -5 35 19 41 2 8 -23 -16 -11 -45 -36 -64 -53 -19 -18 -41 -33 -48
-33 -7 0 -15 -6 -17 -12 -3 -7 -3 3 0 22 8 49 29 88 53 95 11 3 20 10 20 14 0
4 16 13 35 21 19 8 35 18 35 22 0 5 4 7 9 4 5 -3 11 1 15 9 3 8 10 15 15 15 6
0 7 -8 4 -17 -6 -16 -5 -16 10 -4 9 7 14 17 11 22 -3 5 1 18 9 30 11 14 16 17
19 7 4 -10 8 -9 21 4 12 12 14 18 4 21 -7 3 -5 6 6 6 9 1 17 -2 17 -6z m1052
-45 c-7 -7 -12 -8 -12 -2 0 14 12 26 19 19 2 -3 -1 -11 -7 -17z m-27 -31 c15
-16 -5 -64 -54 -126 -17 -21 -31 -45 -31 -52 -1 -21 -27 -64 -37 -61 -4 1 -9
-6 -11 -17 -2 -11 -10 -25 -18 -31 -8 -7 -14 -21 -14 -31 0 -11 -4 -19 -9 -19
-15 0 -34 29 -28 43 4 11 -2 13 -24 11 -20 -3 -29 1 -29 10 0 8 -7 16 -15 20
-8 3 -15 13 -15 23 0 15 2 16 10 3 8 -11 9 -8 4 13 -4 17 -2 27 5 27 6 0 11 9
11 20 0 11 7 23 15 26 8 4 13 10 10 14 -6 9 39 40 58 40 7 0 24 11 37 25 13
14 29 25 36 25 6 0 17 7 24 15 7 9 19 14 26 11 8 -3 13 -2 13 2 -4 25 15 30
36 9z m-855 -28 c0 -5 7 -9 15 -9 20 0 76 -35 68 -43 -6 -6 11 -11 30 -8 10 1
77 -35 73 -40 -3 -2 5 -4 17 -5 12 0 30 -4 40 -8 14 -7 16 -5 11 10 -5 16 -4
16 5 4 8 -11 7 -18 -4 -26 -13 -10 -13 -12 5 -17 11 -3 20 -9 20 -15 0 -12
-111 -95 -118 -88 -3 4 1 6 8 6 7 0 11 2 8 5 -8 9 -38 -6 -32 -16 3 -5 -3 -6
-12 -2 -13 5 -16 3 -11 -10 4 -12 0 -15 -16 -13 -39 5 -81 19 -123 42 -23 13
-45 20 -48 16 -4 -3 -4 1 0 11 5 13 2 16 -12 11 -18 -5 -18 -5 0 10 19 16 19
16 -3 16 -12 0 -19 4 -16 10 4 6 -1 7 -11 3 -11 -4 -13 -8 -6 -11 7 -2 12 -8
12 -13 0 -6 -8 -5 -20 1 -11 6 -18 15 -15 20 3 6 -1 7 -9 4 -9 -3 -16 -1 -16
5 0 6 -20 16 -45 22 -25 6 -48 16 -51 21 -3 5 6 6 23 2 25 -7 27 -6 14 9 -10
12 -10 17 -2 17 7 0 20 7 28 16 9 9 26 14 39 11 13 -2 21 0 18 7 -2 6 5 18 17
26 12 8 31 22 42 31 16 13 27 14 49 7 15 -6 28 -14 28 -19z m-375 -185 c-19
-15 -19 -15 9 -12 24 2 30 -1 33 -22 2 -13 11 -35 19 -48 9 -13 13 -26 11 -29
-7 -6 34 -53 46 -53 9 0 6 27 -8 65 -4 11 7 0 25 -25 34 -48 34 -48 6 55 -7
28 -12 54 -9 58 9 15 80 -7 163 -51 47 -25 103 -55 125 -67 23 -12 62 -27 88
-34 47 -14 61 -34 31 -45 -31 -12 -74 -6 -94 14 l-20 20 0 -25 c0 -42 26 -91
70 -134 23 -23 40 -41 37 -41 -18 0 -137 35 -160 47 -29 14 -49 11 -31 -6 13
-12 189 -71 213 -71 11 0 23 -5 27 -11 7 -12 -20 -8 -60 7 -9 3 -16 1 -16 -5
0 -6 12 -11 28 -12 26 -1 26 -1 4 -8 -13 -3 12 -6 57 -7 44 0 78 3 75 8 -3 4
7 8 21 8 17 0 24 -4 19 -12 -4 -7 -3 -8 4 -4 7 4 12 14 12 22 0 17 1 17 37 3
26 -10 27 -12 8 -19 -15 -7 -16 -9 -4 -9 33 -2 68 -178 39 -196 -14 -8 -13
-52 1 -61 6 -3 15 0 20 7 6 9 7 4 3 -16 -4 -16 -11 -31 -16 -33 -4 -2 -8 -7
-8 -11 0 -14 68 -6 87 10 56 46 56 46 49 11 -5 -21 -4 -32 3 -32 19 0 18 109
-1 147 -10 20 -7 26 15 47 15 14 27 30 27 36 0 18 17 11 27 -12 10 -22 10 -22
15 4 3 17 1 25 -5 21 -7 -4 -7 0 -2 13 5 10 9 31 9 45 1 15 6 25 11 22 12 -4
59 36 51 44 -3 3 -12 0 -21 -7 -19 -15 -19 -1 -1 23 8 10 20 16 27 15 10 -2
13 5 11 22 -2 18 0 21 6 11 13 -19 32 -5 32 24 0 13 5 27 12 31 6 4 8 3 4 -4
-3 -6 -2 -13 4 -17 11 -7 31 37 26 57 -1 7 -1 9 2 5 6 -11 32 13 32 30 0 8 5
11 10 8 6 -3 10 5 10 19 0 25 50 84 66 79 5 -2 18 10 29 27 30 45 40 43 42 -9
2 -34 0 -41 -7 -26 -6 14 -8 3 -8 -40 1 -53 2 -55 7 -20 3 22 7 -43 8 -145 1
-102 5 -196 8 -210 9 -35 6 -204 -4 -270 l-9 -55 -2 50 c-2 28 -4 69 -5 92 -2
78 -15 57 -15 -25 l0 -82 -40 0 c-54 0 -56 -27 -2 -32 36 -3 37 -4 40 -48 2
-33 0 -41 -8 -30 -9 13 -10 13 -10 0 0 -13 -1 -13 -10 0 -9 13 -10 13 -10 0 0
-13 -1 -13 -10 0 -9 13 -10 13 -11 0 0 -9 -4 -7 -11 8 -14 29 -84 33 -90 5 -3
-15 -15 -18 -70 -18 -37 0 -64 3 -62 7 3 5 10 6 15 3 5 -4 9 12 9 34 0 23 5
41 10 41 16 0 11 19 -10 37 -16 14 -20 30 -20 75 0 32 5 60 12 64 8 5 9 -3 5
-29 -5 -35 14 -80 29 -65 4 4 1 14 -6 23 -8 9 -10 27 -6 50 4 22 3 35 -4 35
-5 0 -10 9 -10 20 0 13 -7 20 -20 20 -14 0 -20 -7 -20 -22 0 -21 0 -21 -14 -2
-15 19 -15 19 -36 -2 -16 -16 -20 -28 -15 -44 5 -17 9 -19 16 -9 4 7 11 10 15
6 4 -4 2 -13 -4 -19 -7 -7 -12 -20 -12 -30 0 -10 -9 -32 -20 -50 -11 -18 -20
-28 -20 -22 0 5 7 19 15 30 16 21 20 64 6 64 -4 0 -11 -16 -14 -35 -6 -35 -54
-95 -77 -95 -8 0 -11 -11 -8 -30 3 -22 2 -27 -8 -19 -7 5 -113 12 -243 16
l-231 6 0 -26 c0 -26 -1 -27 -65 -27 l-65 0 0 -40 0 -40 218 0 c160 0 221 3
230 12 18 18 32 -6 32 -54 0 -20 6 -38 13 -41 6 -2 2 -2 -10 0 -13 2 -26 -4
-31 -14 -7 -12 -8 -3 -5 30 l6 47 -242 0 -241 0 0 -30 c0 -28 2 -30 40 -30 29
0 40 -4 40 -15 0 -12 -16 -15 -80 -15 -65 0 -80 3 -80 15 0 12 -13 15 -60 14
-57 -2 -60 -3 -60 -26 0 -13 -6 -31 -14 -38 -23 -24 -34 3 -34 80 1 39 3 60 5
48 4 -19 11 -23 39 -23 25 0 34 -4 35 -17 2 -37 17 33 18 85 l1 52 -76 0 -77
0 6 60 c4 37 3 60 -3 60 -6 0 -10 -8 -10 -17 0 -36 -11 -2 -16 48 -8 92 -11
516 -2 484 4 -17 6 37 4 120 -2 83 0 130 4 105 5 -31 8 -37 10 -20 2 14 3 31
3 38 -1 6 4 12 11 12 6 0 2 6 -9 12 -17 10 -15 13 25 23 62 17 68 17 45 -1z
m2892 -26 c-3 -8 -6 -5 -6 6 -1 11 2 17 5 13 3 -3 4 -12 1 -19z m-2106 3 c-8
-5 -10 -14 -6 -22 6 -11 5 -11 -5 -2 -14 12 -6 33 13 33 8 0 7 -3 -2 -9z
m-694 -43 c-3 -8 -6 -5 -6 6 -1 11 2 17 5 13 3 -3 4 -12 1 -19z m683 -33 c0
-3 -5 -4 -11 -2 -6 1 -14 -4 -16 -10 -3 -7 2 -13 11 -13 29 0 17 -30 -14 -36
-16 -4 -30 -10 -30 -14 0 -4 -21 -1 -47 5 -34 9 -49 18 -50 31 -2 10 0 13 3 7
11 -24 24 -13 14 11 -8 22 -5 26 31 40 46 19 63 13 53 -17 -6 -19 -5 -20 10
-5 9 10 13 24 9 35 -5 15 -2 14 16 -4 11 -12 21 -25 21 -28z m2127 -17 c-3 -8
-6 -5 -6 6 -1 11 2 17 5 13 3 -3 4 -12 1 -19z m-1879 0 c-2 -6 -10 -14 -16
-16 -7 -2 -10 2 -6 12 7 18 28 22 22 4z m-58 -44 c0 -10 7 -13 24 -8 21 5 24
3 19 -15 -3 -12 -9 -21 -13 -21 -4 0 -5 -11 -2 -25 2 -15 0 -25 -7 -25 -6 0
-12 8 -12 18 -1 9 -5 -1 -8 -23 -3 -22 -12 -41 -18 -41 -7 -1 -17 -2 -23 -3
-5 0 -7 -8 -4 -16 10 -25 -12 -17 -24 10 -10 21 -9 23 6 18 14 -5 15 -4 6 8
-18 22 -23 91 -7 85 8 -3 13 2 13 14 0 12 7 20 16 20 10 0 14 6 11 14 -4 10
-1 13 9 9 7 -3 14 -11 14 -19z m80 11 c0 -9 -6 -12 -15 -9 -8 4 -12 10 -9 15
8 14 24 10 24 -6z m-327 -171 c15 -3 27 -12 27 -20 0 -12 -13 -14 -62 -12 -58
3 -63 5 -66 27 -4 25 -3 25 101 5z m1415 9 c-10 -2 -28 -2 -40 0 -13 2 -5 4
17 4 22 1 32 -1 23 -4z m-1258 -13 c0 -5 -2 -10 -4 -10 -3 0 -8 5 -11 10 -3 6
-1 10 4 10 6 0 11 -4 11 -10z m1528 -5 c2 -2 0 -5 -5 -8 -5 -3 -19 1 -33 9
l-25 14 30 -6 c17 -4 31 -8 33 -9z m245 8 c-35 -13 -4 -20 85 -17 67 2 85 0
57 -5 -36 -7 -33 -8 30 -10 l70 -1 0 -48 c-1 -26 -4 -57 -9 -69 -4 -13 -3 -30
3 -40 9 -15 10 -12 11 16 0 24 3 32 10 25 8 -8 8 -19 0 -38 -5 -15 -10 -43
-10 -62 0 -36 2 -35 -71 -38 -28 -1 -35 2 -32 14 3 10 -7 22 -22 30 -18 9 -25
20 -22 32 4 13 0 18 -13 18 -31 0 -33 19 -4 30 29 12 29 12 -3 29 -19 10 -22
9 -17 -4 10 -25 -23 -29 -58 -6 -21 13 -27 21 -16 21 9 0 24 -7 33 -16 9 -9
19 -13 23 -9 4 3 -1 11 -11 16 -9 6 -17 21 -17 35 0 23 -3 25 -32 19 -30 -5
-31 -5 -15 8 16 13 15 15 -14 21 -18 3 -28 10 -24 17 4 6 13 8 19 6 7 -3 18 4
24 14 7 10 18 19 25 18 9 0 9 -2 0 -6z m-1845 -21 c2 -7 -3 -12 -12 -12 -9 0
-16 7 -16 16 0 17 22 14 28 -4z m134 -24 c-6 -6 -7 0 -4 19 5 21 7 23 10 9 2
-10 0 -22 -6 -28z m1253 32 c28 -6 42 -6 47 3 7 11 12 2 9 -17 -1 -5 17 -6 41
-3 32 5 38 4 23 -4 -16 -7 -14 -8 13 -4 29 4 32 2 32 -20 0 -13 10 -33 22 -45
12 -11 16 -20 10 -20 -7 0 -12 -11 -12 -25 0 -14 4 -25 9 -25 5 0 11 -8 14
-19 4 -15 -1 -18 -32 -15 -19 1 -41 -2 -47 -7 -8 -7 -14 -6 -19 0 -3 6 -24 8
-48 5 -23 -3 -53 -1 -67 5 -22 10 -21 11 13 6 29 -5 37 -3 37 10 0 17 -59 21
-89 6 -12 -7 -30 -4 -59 9 -39 18 -42 22 -42 60 0 22 4 40 9 40 5 0 11 11 13
25 4 17 1 25 -8 25 -8 0 -14 5 -14 10 0 12 91 13 145 0z m-1275 -20 c0 -5 -5
-10 -11 -10 -5 0 -7 5 -4 10 3 6 8 10 11 10 2 0 4 -4 4 -10z m1134 -15 c-4 -8
-8 -15 -10 -15 -2 0 -4 7 -4 15 0 8 4 15 10 15 5 0 7 -7 4 -15z m-1341 -2 c-7
-2 -21 -2 -30 0 -10 3 -4 5 12 5 17 0 24 -2 18 -5z m1887 -13 c0 -5 -2 -10 -4
-10 -3 0 -8 5 -11 10 -3 6 -1 10 4 10 6 0 11 -4 11 -10z m-1683 -22 c-3 -8 -6
-5 -6 6 -1 11 2 17 5 13 3 -3 4 -12 1 -19z m1110 -20 c-3 -7 -5 -2 -5 12 0 14
2 19 5 13 2 -7 2 -19 0 -25z m569 5 c-6 -6 -36 9 -36 18 0 5 9 4 20 -3 10 -7
18 -14 16 -15z m-1879 11 c-3 -3 -12 -4 -19 -1 -8 3 -5 6 6 6 11 1 17 -2 13
-5z m690 -26 c-3 -7 -5 -2 -5 12 0 14 2 19 5 13 2 -7 2 -19 0 -25z m-763 13
c4 -5 -3 -7 -14 -4 -23 6 -26 13 -6 13 8 0 17 -4 20 -9z m2016 -3 c0 -4 -9 -8
-21 -8 -11 0 -18 4 -15 8 3 5 12 9 21 9 8 0 15 -4 15 -9z m-913 -55 c-3 -10
-5 -4 -5 12 0 17 2 24 5 18 2 -7 2 -21 0 -30z m-918 -28 c0 -5 -4 -3 -9 5 -5
8 -9 22 -9 30 0 16 17 -16 18 -35z m1709 10 c-4 -21 -1 -25 18 -25 13 0 24 -4
24 -10 0 -5 19 -10 42 -10 27 0 38 -4 33 -9 -15 -15 -87 -20 -109 -9 -39 21
-43 30 -29 60 18 35 27 36 21 3z m72 15 c0 -5 -7 -10 -15 -10 -8 0 -15 -4 -15
-10 0 -15 47 -12 53 3 3 9 7 9 17 1 9 -9 5 -14 -19 -19 -17 -3 -40 -4 -50 0
-17 5 -19 9 -8 26 12 20 37 26 37 9z m-1608 -22 c-7 -7 -12 -8 -12 -2 0 14 12
26 19 19 2 -3 -1 -11 -7 -17z m774 -14 c-4 -15 -3 -58 1 -98 7 -67 8 -69 14
-31 7 44 5 11 -7 -127 -11 -113 -23 -76 -19 55 2 67 1 102 -3 77 l-7 -45 -7
58 c-8 67 0 136 13 115 7 -10 9 -9 9 5 0 9 3 17 6 17 3 0 3 -12 0 -26z m-926
-30 c0 -14 -4 -23 -10 -19 -5 3 -10 15 -10 26 0 10 5 19 10 19 6 0 10 -12 10
-26z m1323 9 c-7 -2 -19 -2 -25 0 -7 3 -2 5 12 5 14 0 19 -2 13 -5z m44 -9
c-3 -3 -12 -4 -19 -1 -8 3 -5 6 6 6 11 1 17 -2 13 -5z m-137 -19 c30 -8 87
-24 125 -34 39 -11 79 -20 90 -21 11 0 27 -5 35 -10 13 -8 13 -11 -2 -26 -18
-18 -62 -23 -92 -9 -16 7 -18 5 -11 -25 4 -18 16 -48 27 -67 11 -18 19 -35 17
-37 -5 -4 -79 16 -139 39 -85 31 -182 101 -176 125 2 8 7 27 10 42 5 24 20 34
51 36 6 1 35 -5 65 -13z m656 3 c2 -2 -1 -10 -6 -18 -8 -12 -10 -12 -10 4 0
15 -3 16 -15 6 -12 -10 -15 -10 -15 3 0 11 7 15 21 12 12 -3 23 -6 25 -7z m40
-35 c-10 -10 -19 5 -10 18 6 11 8 11 12 0 2 -7 1 -15 -2 -18z m-79 1 c-3 -3
-12 -4 -19 -1 -8 3 -5 6 6 6 11 1 17 -2 13 -5z m93 -24 c13 -8 13 -10 -2 -10
-9 0 -20 5 -23 10 -8 13 5 13 25 0z m50 -10 c0 -5 -4 -10 -9 -10 -6 0 -13 5
-16 10 -3 6 1 10 9 10 9 0 16 -4 16 -10z m-1130 -59 c-7 -17 -10 -40 -7 -51 3
-13 0 -20 -9 -20 -8 0 -17 0 -21 -1 -4 0 -9 5 -11 13 -2 9 0 8 7 -2 8 -12 11
-5 11 28 0 23 5 42 10 42 6 0 10 10 10 22 0 17 3 19 11 11 9 -9 9 -19 -1 -42z
m-760 19 c0 -5 -5 -10 -11 -10 -5 0 -7 5 -4 10 3 6 8 10 11 10 2 0 4 -4 4 -10z
m1980 -13 c10 -4 8 -6 -7 -6 -16 -1 -23 5 -23 17 0 10 3 13 8 6 4 -6 14 -14
22 -17z m-55 -7 c3 -6 -1 -7 -9 -4 -18 7 -21 14 -7 14 6 0 13 -4 16 -10z
m-844 -37 c37 -22 37 -32 -1 -39 -28 -6 -30 -10 -30 -49 0 -55 -26 -70 -36
-21 -8 45 -2 71 16 72 8 1 26 2 39 2 26 2 20 17 -7 17 -9 0 -18 8 -20 18 -4
21 2 21 39 0z m716 2 c2 -6 -20 -25 -47 -43 -45 -29 -52 -31 -65 -18 -19 19
-19 36 0 36 8 0 15 -7 15 -15 0 -24 13 -17 38 21 22 33 51 43 59 19z m-616
-53 c10 -9 28 -16 41 -18 27 -3 78 -21 78 -28 0 -3 -6 -4 -12 -2 -37 12 -78
15 -73 6 4 -6 -5 -5 -19 2 -14 6 -26 17 -26 25 0 16 -12 17 -27 2 -8 -8 -11
-4 -10 14 2 26 16 26 48 -1z m407 18 c22 0 32 -5 32 -15 0 -10 -10 -15 -33
-15 -18 0 -38 -5 -45 -12 -9 -9 -12 -9 -12 -1 0 7 -10 13 -22 15 -13 2 -24 11
-26 22 -4 17 0 18 34 13 22 -4 54 -7 72 -7z m-1480 -74 c-2 -1 -11 -8 -20 -15
-16 -12 -18 -11 -18 3 0 10 4 14 10 11 6 -4 8 7 4 27 l-6 33 16 -29 c9 -16 15
-30 14 -30z m652 -38 c0 -18 -3 -43 -6 -55 -11 -41 -24 -24 -24 32 0 42 3 55
15 55 10 0 15 -10 15 -32z m17 -20 c-2 -13 -4 -5 -4 17 -1 22 1 32 4 23 2 -10
2 -28 0 -40z m533 37 c0 -8 -4 -15 -10 -15 -5 0 -10 7 -10 15 0 8 5 15 10 15
6 0 10 -7 10 -15z m230 -5 c-18 -12 -30 -13 -30 -2 0 4 10 9 22 9 18 2 20 0 8
-7z m-483 -47 c-3 -10 -5 -4 -5 12 0 17 2 24 5 18 2 -7 2 -21 0 -30z m563 27
c0 -5 -2 -10 -4 -10 -3 0 -8 5 -11 10 -3 6 -1 10 4 10 6 0 11 -4 11 -10z m147
-26 c-2 -2 -12 -1 -22 2 -17 7 -17 8 1 21 17 12 19 12 22 -2 2 -9 2 -19 -1
-21z m-153 -3 c2 -3 -13 -7 -34 -7 -27 -1 -37 2 -34 10 5 12 60 10 68 -3z m96
15 c0 -2 -7 -9 -15 -16 -13 -11 -14 -10 -9 4 5 14 24 23 24 12z m-1640 -26 c0
-5 -2 -10 -4 -10 -3 0 -8 5 -11 10 -3 6 -1 10 4 10 6 0 11 -4 11 -10z m-171
-15 c28 -5 40 -15 20 -16 -26 -1 -63 -9 -68 -15 -3 -3 2 -10 12 -15 25 -15 13
-26 -23 -21 -28 4 -30 7 -30 44 0 44 -9 42 89 23z m93 -17 c-8 -8 -9 -4 -5 13
4 13 8 18 11 10 2 -7 -1 -18 -6 -23z m468 12 c0 -11 -7 -20 -15 -20 -8 0 -15
2 -15 4 0 2 -3 11 -6 20 -4 12 0 16 15 16 14 0 21 -6 21 -20z m360 9 c0 -15
-18 -19 -23 -6 -3 8 1 14 9 14 8 0 14 -4 14 -8z m-365 -59 c3 -5 -3 -10 -14
-10 -12 0 -21 5 -21 10 0 6 6 10 14 10 8 0 18 -4 21 -10z m-405 -25 c0 -8 -7
-15 -15 -15 -8 0 -15 7 -15 15 0 8 7 15 15 15 8 0 15 -7 15 -15z m2574 -21 c3
-8 2 -12 -4 -9 -6 3 -10 10 -10 16 0 14 7 11 14 -7z m-1667 -16 c-3 -8 -6 -5
-6 6 -1 11 2 17 5 13 3 -3 4 -12 1 -19z m-327 -18 c0 -5 -5 -10 -11 -10 -5 0
-7 5 -4 10 3 6 8 10 11 10 2 0 4 -4 4 -10z m210 0 c0 -5 -5 -10 -11 -10 -5 0
-7 5 -4 10 3 6 8 10 11 10 2 0 4 -4 4 -10z m-1130 -20 c0 -5 -4 -10 -10 -10
-5 0 -10 5 -10 10 0 6 5 10 10 10 6 0 10 -4 10 -10z m90 -34 c0 -8 -4 -18 -10
-21 -5 -3 -10 3 -10 14 0 12 5 21 10 21 6 0 10 -6 10 -14z m117 -28 c-3 -8 -6
-5 -6 6 -1 11 2 17 5 13 3 -3 4 -12 1 -19z m-870 -110 c-3 -8 -6 -5 -6 6 -1
11 2 17 5 13 3 -3 4 -12 1 -19z m950 -400 c-3 -8 -6 -5 -6 6 -1 11 2 17 5 13
3 -3 4 -12 1 -19z"/>
<path d="M1691 4194 c0 -11 3 -14 6 -6 3 7 2 16 -1 19 -3 4 -6 -2 -5 -13z"/>
<path d="M1682 4150 c0 -14 2 -19 5 -12 2 6 2 18 0 25 -3 6 -5 1 -5 -13z"/>
<path d="M3212 3980 c0 -14 2 -19 5 -12 2 6 2 18 0 25 -3 6 -5 1 -5 -13z"/>
<path d="M3225 3920 c3 -5 8 -10 11 -10 2 0 4 5 4 10 0 6 -5 10 -11 10 -5 0
-7 -4 -4 -10z"/>
<path d="M2081 3924 c0 -11 3 -14 6 -6 3 7 2 16 -1 19 -3 4 -6 -2 -5 -13z"/>
<path d="M2001 3774 c0 -11 3 -14 6 -6 3 7 2 16 -1 19 -3 4 -6 -2 -5 -13z"/>
<path d="M1200 3960 c0 -5 5 -10 11 -10 5 0 7 5 4 10 -3 6 -8 10 -11 10 -2 0
-4 -4 -4 -10z"/>
<path d="M1468 3823 c7 -3 16 -2 19 1 4 3 -2 6 -13 5 -11 0 -14 -3 -6 -6z"/>
<path d="M1500 3780 c0 -5 5 -10 10 -10 6 0 10 5 10 10 0 6 -4 10 -10 10 -5 0
-10 -4 -10 -10z"/>
<path d="M1460 3759 c0 -5 5 -7 10 -4 6 3 10 8 10 11 0 2 -4 4 -10 4 -5 0 -10
-5 -10 -11z"/>
<path d="M2253 3440 c0 -25 2 -35 4 -22 2 12 2 32 0 45 -2 12 -4 2 -4 -23z"/>
<path d="M1360 3360 c0 -5 5 -10 11 -10 5 0 7 5 4 10 -3 6 -8 10 -11 10 -2 0
-4 -4 -4 -10z"/>
<path d="M1348 3333 c6 -2 18 -2 25 0 6 3 1 5 -13 5 -14 0 -19 -2 -12 -5z"/>
<path d="M2250 3195 c0 -16 5 -37 10 -45 7 -12 10 -8 10 15 0 17 -5 37 -10 45
-7 12 -10 8 -10 -15z"/>
<path d="M1640 3101 c0 -6 5 -13 10 -16 6 -3 10 1 10 9 0 9 -4 16 -10 16 -5 0
-10 -4 -10 -9z"/>
<path d="M1280 2935 c0 -11 11 -15 40 -15 29 0 40 4 40 15 0 11 -11 15 -40 15
-29 0 -40 -4 -40 -15z"/>
<path d="M2000 2880 c0 -27 3 -30 34 -30 33 0 46 13 46 46 0 10 -12 14 -40 14
-38 0 -40 -2 -40 -30z"/>
<path d="M1034 2809 c3 -17 6 -35 6 -40 0 -5 7 -9 15 -9 8 0 15 9 15 20 0 11
5 20 10 20 6 0 10 9 10 20 0 16 -7 20 -31 20 -30 0 -31 -2 -25 -31z"/>
<path d="M1555 3660 c3 -5 10 -10 16 -10 5 0 9 5 9 10 0 6 -7 10 -16 10 -8 0
-12 -4 -9 -10z"/>
<path d="M1821 3574 c0 -11 3 -14 6 -6 3 7 2 16 -1 19 -3 4 -6 -2 -5 -13z"/>
<path d="M3722 3388 c-15 -15 -16 -32 -2 -23 6 3 10 -1 10 -11 0 -13 3 -14 15
-4 18 15 20 50 2 50 -7 0 -18 -5 -25 -12z"/>
<path d="M3028 3413 c7 -3 16 -2 19 1 4 3 -2 6 -13 5 -11 0 -14 -3 -6 -6z"/>
<path d="M2858 2945 c-3 -14 -1 -25 3 -25 5 0 9 11 9 25 0 14 -2 25 -4 25 -2
0 -6 -11 -8 -25z"/>
</g>
</svg>
